# xmcd
# 
# Track frame offsets:
#     150
#     12145
#     25290
#     37785
#     55050
#     67210
#     79050
#     90825
#     103700
#     117775
#     138505
#     149775
#     161165
#     172795
#     186465
#     201560
#     214237
#     225600
#     239475
#     249125
#     262040
#     274275
#     290005
#     302915
# 
# Disc length: 4216
# 
# Revision: 7
# Processed by: cddbd v1.5.2PL0 Copyright (c) Steve Scherf et al.
# Submitted via: fre:ac v1.0.17
# 
DISCID=65107618
DTITLE=Sampler - Best Country CD 1_2
DYEAR=1989
DGENRE=Country
TTITLE0=Elvira_The Oak Ridge Boys
TTITLE1=Here's Some Love_Tanya Tucker
TTITLE2=Some Broken Hearts Never Mend_Don Williams
TTITLE3=Blanket On The Ground_Billie Jo Spears
TTITLE4=Working Without A Net_Waylon Jennings
TTITLE5=Me And Bobby McGee_Kenny Rogers
TTITLE6=Ring Of Fire_Johnny Cash
TTITLE7=Rose Garden_Lynn Anderson
TTITLE8=Wicked Ways_Patty Loveless
TTITLE9=Red Neckin' Love Makin' Night_Conway Twitty
TTITLE10=The Happiest Girl In The USA_Donna Fargo
TTITLE11=Rub It In_Billie "Crash" Craddock
TTITLE12=Rocky Top_Osborne Brothers
TTITLE13=Just A Woman_Loretta Lynn
TTITLE14=You're The Last Thing I Needed Tonight_John Schneider
TTITLE15=Detroit City_Bobby Bare
TTITLE16=It Wasn't God Who Made Hony Tonk Angels_Kitty Wells
TTITLE17=Walking Peace Of Heaven_Marty Robbins
TTITLE18=Lone Star Beer And Bob Wills Music_Red Steagall
TTITLE19=Lean It All On Me_Diana Trask
TTITLE20=Crazy_Patsy Cline
TTITLE21=Dallas_Joe Ely
TTITLE22=Midnight Angel_Barbara Mandrell
TTITLE23=Somebody Hold Me_Narvel Felts
EXTD=YEAR: 1989
EXTT0=
EXTT1=
EXTT2=
EXTT3=
EXTT4=
EXTT5=
EXTT6=
EXTT7=
EXTT8=
EXTT9=
EXTT10=
EXTT11=
EXTT12=
EXTT13=
EXTT14=
EXTT15=
EXTT16=
EXTT17=
EXTT18=
EXTT19=
EXTT20=
EXTT21=
EXTT22=
EXTT23=
PLAYORDER=
